<svg xmlns="http://www.w3.org/2000/svg" viewBox="0 0 108 108" width="512" height="512">
  <!-- Background layer (ic_launcher_background.xml) -->
  <path fill="#FFF0FE" d="M0,0h108v108h-108z" />
  <!-- Foreground layer (ic_launcher_foreground.xml) -->
  <!-- Pig face -->
  <path fill="#FF8FA3" d="M54,58m-25,0a25,25 0,1 1,50 0a25,25 0,1 1,-50 0" />
  <!-- Pig snout -->
  <path fill="#FFB0BE" d="M54,65m-10,0a10,7 0,1 1,20 0a10,7 0,1 1,-20 0" />
  <!-- Nostrils -->
  <path fill="#E85A77" d="M50,65m-2,0a2,2 0,1 1,4 0a2,2 0,1 1,-4 0" />
  <path fill="#E85A77" d="M58,65m-2,0a2,2 0,1 1,4 0a2,2 0,1 1,-4 0" />
  <!-- Eyes -->
  <path fill="#262626" d="M44,52m-3,0a3,3 0,1 1,6 0a3,3 0,1 1,-6 0" />
  <path fill="#262626" d="M64,52m-3,0a3,3 0,1 1,6 0a3,3 0,1 1,-6 0" />
  <!-- Ears -->
  <path fill="#FF8FA3" d="M32,40 Q28,30 38,35 Q42,38 38,42 Z" />
  <path fill="#FF8FA3" d="M76,40 Q80,30 70,35 Q66,38 70,42 Z" />
</svg>
